<svg width="228" height="48" viewBox="0 0 228 48" fill="none" xmlns="http://www.w3.org/2000/svg">
<path d="M3.88209 1.92987C-5.96555 35.2176 13.4956 47.0591 13.8704 47.2557C8.54768 40.1667 8.49619 30.1152 9.1358 25.9756C11.7667 31.2686 18.0286 36.5553 20.8307 38.537C18.4997 33.4013 20.0032 28.1615 21.0464 26.1835C25.4861 34.9301 33.8958 42.504 37.5456 45.1975C29.6676 37.1514 23.5423 13.2045 21.4644 2.23677C15.1054 11.1751 14.0054 21.4663 14.2503 25.4946C10.3458 23.8295 5.71127 9.09098 3.88209 1.92987Z" fill="white"/>
<path d="M46.5905 36.23C35.5337 36.9496 31.0404 13.3987 30.1759 1.53333C42.4969 41.0635 44.9748 20.4543 44.6735 5.2084C54.1793 32.6743 49.9123 37.3336 46.5905 36.23Z" fill="white"/>
<path d="M59.1745 8.69341C54.4726 18.0409 56.0865 33.9243 57.4812 40.6976C62.2614 9.52675 66.8926 28.7898 68.6106 42.3178C82.4509 29.4797 76.9159 14.3262 72.4184 8.35425C72.0336 30.4005 69.9042 29.6029 68.8876 26.4483C67.2001 19.1185 61.7091 11.5576 59.1745 8.69341Z" fill="white"/>
<path d="M81.7069 39.5996C84.3903 26.7189 89.4799 5.99049 100.045 39.9197C96.4932 15.9037 85.286 -24.5956 81.7069 39.5996Z" fill="white"/>
<path d="M107.581 41.5721C109.935 36.7464 108.238 14.7779 107.095 4.39687C120.192 34.1878 121.769 19.6718 118.973 6.50529C135.119 24.0873 128.278 40.3808 122.828 45.6405C127.565 23.4802 120.357 24.6851 120.281 29.0564C119.452 33.2243 116.695 35.8695 115.42 36.671C112.268 11.4262 113.051 30.356 107.581 41.5721Z" fill="white"/>
<path d="M134.273 7.53282C139.447 46.9762 148.623 19.6653 146.126 11.0667C157.796 35.8898 130.503 60.9834 134.273 7.53282Z" fill="white"/>
<path d="M174.151 8.98933C158.014 23.3843 150.852 11.1492 162.879 4.70517C147.958 10.072 149.729 21.3322 152.479 26.2914C169.829 7.39299 165.713 26.5224 152.273 38.0747C169.819 29.6359 174.169 15.1683 174.151 8.98933Z" fill="white"/>
<path d="M173.907 22.9583C176.994 16.869 181.715 4.65374 200.285 6.87901C186.466 7.68339 171.498 19.4942 186.274 18.7065C194.36 18.8477 191.975 22.4181 189.771 24.1857C193.118 16.6397 173.73 23.9058 173.716 33.8864C173.048 36.0293 175.926 39.4382 192.781 35.9301C161.51 50.5932 168.031 34.5476 173.907 22.9583Z" fill="white"/>
<path d="M216.609 14.2931C205.763 50.6052 201.474 25.4356 204.146 13.2201C191.786 36.5782 196.026 41.405 199.692 40.8986C247.546 29.5668 221.252 8.29059 205.926 8.78352C216.012 11.6212 217.251 13.6389 216.609 14.2931Z" fill="white"/>
<path d="M3.88209 1.92987C-5.96555 35.2176 13.4956 47.0591 13.8704 47.2557C8.54768 40.1667 8.49619 30.1152 9.1358 25.9756C11.7667 31.2686 18.0286 36.5553 20.8307 38.537C18.4997 33.4013 20.0032 28.1615 21.0464 26.1835C25.4861 34.9301 33.8958 42.504 37.5456 45.1975C29.6676 37.1514 23.5423 13.2045 21.4644 2.23677C15.1054 11.1751 14.0054 21.4663 14.2503 25.4946C10.3458 23.8295 5.71127 9.09098 3.88209 1.92987Z" stroke="white"/>
<path d="M46.5905 36.23C35.5337 36.9496 31.0404 13.3987 30.1759 1.53333C42.4969 41.0635 44.9748 20.4543 44.6735 5.2084C54.1793 32.6743 49.9123 37.3336 46.5905 36.23Z" stroke="white"/>
<path d="M59.1745 8.69341C54.4726 18.0409 56.0865 33.9243 57.4812 40.6976C62.2614 9.52675 66.8926 28.7898 68.6106 42.3178C82.4509 29.4797 76.9159 14.3262 72.4184 8.35425C72.0336 30.4005 69.9042 29.6029 68.8876 26.4483C67.2001 19.1185 61.7091 11.5576 59.1745 8.69341Z" stroke="white"/>
<path d="M81.7069 39.5996C84.3903 26.7189 89.4799 5.99049 100.045 39.9197C96.4932 15.9037 85.286 -24.5956 81.7069 39.5996Z" stroke="white"/>
<path d="M107.581 41.5721C109.935 36.7464 108.238 14.7779 107.095 4.39687C120.192 34.1878 121.769 19.6718 118.973 6.50529C135.119 24.0873 128.278 40.3808 122.828 45.6405C127.565 23.4802 120.357 24.6851 120.281 29.0564C119.452 33.2243 116.695 35.8695 115.42 36.671C112.268 11.4262 113.051 30.356 107.581 41.5721Z" stroke="white"/>
<path d="M134.273 7.53282C139.447 46.9762 148.623 19.6653 146.126 11.0667C157.796 35.8898 130.503 60.9834 134.273 7.53282Z" stroke="white"/>
<path d="M174.151 8.98933C158.014 23.3843 150.852 11.1492 162.879 4.70517C147.958 10.072 149.729 21.3322 152.479 26.2914C169.829 7.39299 165.713 26.5224 152.273 38.0747C169.819 29.6359 174.169 15.1683 174.151 8.98933Z" stroke="white"/>
<path d="M173.907 22.9583C176.994 16.869 181.715 4.65374 200.285 6.87901C186.466 7.68339 171.498 19.4942 186.274 18.7065C194.36 18.8477 191.975 22.4181 189.771 24.1857C193.118 16.6397 173.73 23.9058 173.716 33.8864C173.048 36.0293 175.926 39.4382 192.781 35.9301C161.51 50.5932 168.031 34.5476 173.907 22.9583Z" stroke="white"/>
<path d="M216.609 14.2931C205.763 50.6052 201.474 25.4356 204.146 13.2201C191.786 36.5782 196.026 41.405 199.692 40.8986C247.546 29.5668 221.252 8.29059 205.926 8.78352C216.012 11.6212 217.251 13.6389 216.609 14.2931Z" stroke="white"/>
</svg>
